<svg width="314" height="71" viewBox="0 0 314 71" fill="none" xmlns="http://www.w3.org/2000/svg">
<path d="M1.35068 64.6733C1.17804 65.6061 2.329 69.6082 6.05703 69.1604C10.7171 68.6007 30.9105 68.041 36.6061 69.1604C42.3017 70.2798 94.5976 70.2799 96.151 69.1604C97.7043 68.041 265.983 68.041 268.572 69.1604C271.161 70.2799 304.817 70.2799 307.923 69.1604C311.03 68.041 313.101 69.1604 312.583 62.4439C312.066 55.7274 313.74 47.6115 312.583 42.2943C311.893 39.1172 313.243 15.3358 312.583 12.6296C311.151 6.75259 314.137 1.99504 309.995 1.99504C305.852 1.99504 256.663 -0.243805 232.845 1.99504C209.027 4.23389 108.06 3.67418 98.7399 1.99504C89.4198 0.315906 12.7882 3.11446 8.64593 1.99504C4.50368 0.875618 1.28775 0.315909 1.91492 8.15187C2.6053 14.4953 3.57176 20.3468 1.91486 29.75C0.706834 36.6057 0.893341 42.1065 1.35062 48.5003" stroke="#37372F" stroke-linecap="round"/>
</svg>
