<svg width="62" height="82" viewBox="0 0 62 82" fill="none" xmlns="http://www.w3.org/2000/svg">
<path d="M1.06744 74.8241C1.03424 75.9056 1.25558 80.5457 1.9725 80.0266C2.86866 79.3776 6.75202 78.7287 7.84733 80.0266C8.94264 81.3245 18.9995 81.3245 19.2983 80.0266C19.597 78.7287 51.9583 78.7287 52.4562 80.0266C52.954 81.3245 59.4263 81.3245 60.0237 80.0266C60.6212 78.7287 61.0195 80.0266 60.9199 72.2393C60.8203 64.452 61.1423 55.0424 60.9199 48.8774C60.787 45.1939 61.0467 17.6212 60.9199 14.4835C60.6444 7.66967 61.2186 2.15367 60.422 2.15367C59.6254 2.15367 50.166 -0.442095 45.5856 2.15367C41.0052 4.74943 21.5884 4.10049 19.7961 2.15367C18.0038 0.206846 3.26696 3.45155 2.47037 2.15367C1.67378 0.855787 1.05534 0.206847 1.17595 9.29202C1.30871 16.6467 1.49457 23.4311 1.17593 34.3333C0.943622 42.282 0.979489 48.6597 1.06743 56.0729" stroke="#37372F" stroke-linecap="round"/>
</svg>
